<?xml version="1.0" encoding="UTF-8"?>
<svg id="Layer_2" data-name="Layer 2" xmlns="http://www.w3.org/2000/svg" viewBox="0 0 212.49 212.49">
  <defs>
    <style>
      .cls-1 {
        fill: #dc5b49;
      }
    </style>
  </defs>
  <g id="Layer_1-2" data-name="Layer 1">
    <g>
      <path class="cls-1" d="M18.44,41.67l20.5,33.16c3.69,5.97,10.08,9.54,17.11,9.54h0c7.02,0,13.42-3.57,17.12-9.54l34.85-56.39h104.47V0h-114.75l-40.26,65.14c-.33.53-.81.8-1.43.8s-1.1-.27-1.43-.79L23.25,14.39c-2.98-4.82-8.67-7.04-14.12-5.47C3.67,10.47,0,15.32,0,21v191.49h18.44V41.67Z"/>
      <path class="cls-1" d="M118.32,56.32h94.16v-18.44h-94.16c-5.09,0-9.22,4.13-9.22,9.22s4.13,9.22,9.22,9.22Z"/>
      <path class="cls-1" d="M118.32,94.21h94.16v-18.44h-94.16c-5.09,0-9.22,4.13-9.22,9.22s4.13,9.22,9.22,9.22Z"/>
      <path class="cls-1" d="M65.27,212.49v-75.33c0-2.8,2.27-5.06,5.06-5.06h120.36c1.84,0,3.35,1.51,3.35,3.35v17.01c0,1.84-1.51,3.35-3.35,3.35h-62.41c-6.08,0-11.08,4.18-12.16,10.16-1.09,6,2.72,11.85,8.43,14.01l61.41,32.52h26.53v-9.66l-51.07-28.59h32.25c10.39,0,18.82-8.43,18.82-18.82v-22.95c0-10.39-8.42-18.82-18.82-18.82h-123.34c-12.98,0-23.5,10.52-23.5,23.5v75.33h18.44Z"/>
    </g>
  </g>
</svg>